<?xml version="1.0" encoding="utf-8"?>
<!-- Generator: Adobe Illustrator 16.0.0, SVG Export Plug-In . SVG Version: 6.00 Build 0)  -->
<!DOCTYPE svg PUBLIC "-//W3C//DTD SVG 1.1//EN" "http://www.w3.org/Graphics/SVG/1.1/DTD/svg11.dtd">
<svg version="1.1" xmlns="http://www.w3.org/2000/svg" xmlns:xlink="http://www.w3.org/1999/xlink" x="0px" y="0px" width="235px"
	 height="157.5px" viewBox="0 0 235 157.5" enable-background="new 0 0 235 157.5" xml:space="preserve">
<g id="Calque_1">
	<polygon fill="#3155A4" points="116.72,61.45 108.255,61.45 108.255,17.234 116.72,17.234 116.72,40.662 123.527,32.812 
		134.38,32.812 122.483,45.444 136.774,61.45 126.289,61.45 116.72,50.106 	"/>
	<rect x="121.375" y="93.518" fill="#3155A4" width="8.463" height="18.223"/>
	<polygon fill="#3155A4" points="154.855,83.102 154.855,89.844 148.846,89.844 148.846,111.741 140.381,111.741 140.381,89.844 
		135.168,89.844 135.168,83.102 140.381,83.102 140.381,72.123 148.846,72.123 148.846,83.102 	"/>
</g>
<g id="Mode_Isolation">
	<path fill="#3155A4" d="M157.985,44.586c-0.428-3.495-3.617-4.906-6.008-4.906c-2.393,0-5.642,1.286-6.379,4.906H157.985z
		 M164.977,56.237c-2.881,4.293-8.22,5.827-13.063,5.827c-8.217,0-14.966-6.01-14.966-15.023c0-9.017,6.749-14.841,14.966-14.841
		c8.158,0,14.655,6.072,14.655,15.088c0,0.734-0.059,1.898-0.12,2.636h-20.975c0.431,3.308,4.049,4.78,7.053,4.78
		c2.332,0,4.847-0.857,6.256-2.697L164.977,56.237z"/>
	<path fill="#3155A4" d="M180.914,61.45h-8.525V32.812h8.525v6.931c1.472-5.338,5.148-7.544,8.096-7.544
		c2.022,0,3.556,0.368,4.904,1.042l-1.531,7.665c-1.535-0.735-3.007-0.859-4.355-0.859c-4.906,0-7.113,3.863-7.113,11.407V61.45z"/>
	<path fill="#3155A4" d="M70.187,83.102h8.521v28.639h-8.521v-3.926c-1.534,2.883-4.662,4.535-7.422,4.535
		c-6.44,0-11.346-3.98-11.346-12.139V83.102h8.526v15.27c0,4.537,3.128,5.705,5.09,5.705c2.636,0,5.152-1.473,5.152-5.828V83.102z"
		/>
	<path fill="#3155A4" d="M95.076,111.741h-8.526V83.102h8.526v4.17c1.532-2.885,4.903-4.783,8.276-4.783
		c6.441,0,10.489,3.984,10.489,12.143v17.109h-8.524V96.469c0-3.801-2.086-5.703-4.968-5.703c-3.005,0-5.273,1.473-5.273,5.826
		V111.741z"/>
	<path fill="#3155A4" d="M178.951,94.875c-0.429-3.494-3.618-4.904-6.01-4.904c-2.393,0-5.642,1.285-6.375,4.904H178.951z
		 M185.942,106.526c-2.88,4.297-8.217,5.824-13.063,5.824c-8.216,0-14.962-6.008-14.962-15.021c0-9.016,6.746-14.84,14.962-14.84
		c8.158,0,14.659,6.07,14.659,15.086c0,0.734-0.062,1.9-0.124,2.637h-20.973c0.431,3.311,4.048,4.783,7.051,4.783
		c2.332,0,4.847-0.859,6.256-2.697L185.942,106.526z"/>
	<path fill="#3155A4" d="M205.5,49.677c-8.586-2.331-8.648-6.684-8.586-9.322c0.062-4.232,5.153-8.156,11.162-8.156
		c5.702,0,12.031,2.514,12.09,9.506h-7.606c-0.062-2.147-2.364-2.896-4.023-2.874c-1.839,0.023-3.283,1.118-3.197,2.622
		c0.05,0.862,1.019,1.6,2.737,2.031l4.844,1.287c6.929,1.901,7.788,6.498,7.788,8.34c0,6.07-6.376,8.953-12.387,8.953
		c-5.826,0-11.897-3.496-11.957-9.872h7.428c0.061,1.654,2.105,3.529,4.744,3.572c1.904,0.031,3.938-1.117,3.938-2.837
		c0-1.226-1.148-1.716-3.234-2.27L205.5,49.677z"/>
	<path fill="#3155A4" d="M119.604,130.727c2.881,0,5.213,2.148,5.213,4.967c0,2.822-2.332,5.029-5.213,5.029
		c-2.884,0-5.339-2.207-5.339-5.029C114.265,132.875,116.72,130.727,119.604,130.727"/>
	<path fill="#3155A4" d="M45.111,46.304V61.45h-8.522V45.996c-0.062-3.616-2.273-5.52-4.725-5.52c-2.577,0-4.967,1.472-4.967,5.828
		V61.45h-8.523V32.812h8.523v4.169c1.349-3.003,4.416-4.721,7.482-4.721c4.539,0,7.605,1.718,9.197,5.028
		c2.76-4.476,6.565-5.089,8.588-5.089c6.807,0,11.037,4.354,11.037,12.999V61.45h-8.462V46.18c0-3.74-2.209-5.704-4.723-5.704
		C47.319,40.476,45.111,42.134,45.111,46.304"/>
	<path fill="#3155A4" d="M85.024,53.908c3.493,0,6.927-2.515,6.927-6.807c0-4.294-3.434-6.808-6.927-6.808
		c-3.559,0-7.177,2.699-7.177,6.808S81.465,53.908,85.024,53.908 M91.951,58.199c-1.836,2.762-6.13,3.804-8.34,3.804
		c-7.298,0-14.593-5.704-14.593-14.902c0-9.199,7.295-14.902,14.593-14.902c1.841,0,6.139,0.613,8.34,3.802v-3.189h8.467V61.45
		h-8.467V58.199z"/>
</g>
</svg>
